<?xml version="1.0" encoding="utf-8"?>
<!-- Generator: Adobe Illustrator 22.1.0, SVG Export Plug-In . SVG Version: 6.00 Build 0)  -->
<svg version="1.1" id="Layer_1" xmlns="http://www.w3.org/2000/svg" xmlns:xlink="http://www.w3.org/1999/xlink" x="0px" y="0px"
	 viewBox="0 0 1080 1080" style="enable-background:new 0 0 1080 1080;" xml:space="preserve">
<style type="text/css">
	.st0{fill:#21B685;}
	.st1{fill:#F04D45;}
	.st2{fill:#5F8AC7;}
	.st3{display:none;}
	.st4{fill:none;}
</style>
<g>
	<polygon class="st0" points="898.2,407.9 719.5,716 1077.5,716 	"/>
</g>
<polygon class="st1" points="340.6,407.9 233.4,407.9 219.9,436.3 32.5,407.9 32.5,716 140.2,716 153.6,688.1 340.6,716 "/>
<circle class="st2" cx="555.6" cy="561.9" r="154"/>
<g>
	<path d="M533.1,375.5c-88.5,0-160.3,71.8-160.3,160.3S444.6,696,533.1,696c88.5,0,160.3-71.8,160.3-160.3S621.7,375.5,533.1,375.5z
		 M533.2,683.5c-81.6,0-147.8-66.2-147.8-147.8s66.2-147.8,147.8-147.8S681,454,681,535.7S614.8,683.5,533.2,683.5z"/>
	<path class="st3" d="M881.8,369.3L692.3,696h379.6L881.8,369.3z M881.8,394l168.5,289.5H713.9L881.8,394z"/>
</g>
<path d="M193.9,403.3l-190-28.8V696h117.8l13.2-27.3l189.5,28.3V375.5H207.1L193.9,403.3z M312,387.9v294.7L127.6,655l-13.7,28.5
	H16.3V388.9l184.9,28l13.7-29H312z"/>
<g>
	<path d="M879.4,375.4L693.4,696h372.5L879.4,375.4z M715.3,682.6L715.3,682.6l164-282.7l165,283.6h0l0.1,0.2H714.6L715.3,682.6z"/>
</g>
<rect x="3.7" y="375.4" class="st4" width="1073.6" height="340.6"/>
</svg>
